<svg viewBox="0 0 304 50" xmlns="http://www.w3.org/2000/svg" xmlns:xlink="http://www.w3.org/1999/xlink"><defs><filter x="-1.3%" y="-9.1%" width="102.7%" height="122.7%" filterUnits="objectBoundingBox" id="a"><feOffset dy="2" in="SourceAlpha" result="shadowOffsetOuter1"/><feGaussianBlur stdDeviation="1" in="shadowOffsetOuter1" result="shadowBlurOuter1"/><feComposite in="shadowBlurOuter1" in2="SourceAlpha" operator="out" result="shadowBlurOuter1"/><feColorMatrix values="0 0 0 0 0 0 0 0 0 0 0 0 0 0 0 0 0 0 0.12 0" in="shadowBlurOuter1" result="shadowMatrixOuter1"/><feOffset in="SourceAlpha" result="shadowOffsetOuter2"/><feGaussianBlur stdDeviation="1" in="shadowOffsetOuter2" result="shadowBlurOuter2"/><feComposite in="shadowBlurOuter2" in2="SourceAlpha" operator="out" result="shadowBlurOuter2"/><feColorMatrix values="0 0 0 0 0 0 0 0 0 0 0 0 0 0 0 0 0 0 0.12 0" in="shadowBlurOuter2" result="shadowMatrixOuter2"/><feMerge><feMergeNode in="shadowMatrixOuter1"/><feMergeNode in="shadowMatrixOuter2"/></feMerge></filter><path d="M12 0h276c6.627417 0 12 5.372583 12 12v20c0 6.627417-5.372583 12-12 12H12C5.372583 44 0 38.627417 0 32V12C0 5.372583 5.372583 0 12 0z" id="b"/></defs><g fill="none" fill-rule="evenodd"><g transform="translate(2 2)"><use fill="#000" filter="url(#a)" xlink:href="#b"/><path stroke="#169F9F" d="M288 .5c3.175637 0 6.050637 1.28718134 8.131728 3.36827202C298.212819 5.94936269 299.5 8.82436269 299.5 12h0v20c0 3.1756373-1.287181 6.0506373-3.368272 8.131728C294.050637 42.2128187 291.175637 43.5 288 43.5h0H12c-3.17563731 0-6.05063731-1.2871813-8.13172798-3.368272C1.78718134 38.0506373.5 35.1756373.5 32h0V12c0-3.17563731 1.28718134-6.05063731 3.36827202-8.13172798C5.94936269 1.78718134 8.82436269.5 12 .5h0z" stroke-linejoin="square" fill="#FFF"/></g><path d="M66.8234863 31.3339844c3.2470703 0 5.2602539-1.6235352 5.2602539-4.2304688 0-2.0410156-1.1411132-3.1728515-3.859375-3.7851562l-1.540039-.3525391c-1.6606446-.3803711-2.3378907-.9091797-2.3378907-1.80908202 0-1.14111328 1.0205079-1.88330078 2.5605469-1.88330078 1.4658203 0 2.5048828.7421875 2.671875 1.92041016h2.2915039c-.1113281-2.30078125-2.1430664-3.91503907-4.9541015-3.91503907-2.9965821 0-4.9819336 1.61425782-4.9819336 4.04492188 0 1.99462893 1.1411133 3.20068363 3.5717773 3.74804683l1.7348633.3989258c1.7163086.3989258 2.4492187.9648438 2.4492187 1.9296875 0 1.1225586-1.1411132 1.9296875-2.7182617 1.9296875-1.6977539 0-2.8852539-.7700195-3.0336914-1.9667969h-2.3378906c.1206055 2.4306641 2.1523437 3.9707032 5.2231445 3.9707032zm8.878418-12.16259768c.7607422 0 1.3730469-.61230469 1.3730469-1.38232422 0-.77001953-.6123047-1.39160156-1.3730469-1.39160156-.7514648 0-1.3730469.62158203-1.3730469 1.39160156s.6215821 1.38232422 1.3730469 1.38232422zM76.8522949 31V20.85058594H74.560791V31h2.2915039zm7.2084961 3.859375c2.9594727 0 4.8334961-1.4750977 4.8334961-3.8222656V20.85058594H86.677002v1.62353516h-.1577149c-.5566406-1.10400391-1.7626953-1.79052735-3.1450195-1.79052735-2.5883789 0-4.1933594 2.02246095-4.1933594 5.13037105 0 3.0522461 1.5957031 5.0375977 4.15625 5.0375977 1.4101563 0 2.5141602-.59375 3.0986328-1.6791992h.1577149v1.9204101c0 1.2709961-.9184571 2.0131836-2.4956055 2.0131836-1.2617188 0-2.078125-.4453125-2.2265625-1.1411132h-2.3100586c.1855469 1.7441406 1.8925781 2.8945312 4.4995117 2.8945312zm0-5.8818359c-1.6049805 0-2.5141601-1.2246094-2.5141601-3.1635743 0-1.9389648.9091796-3.1728515 2.5141601-3.1728515 1.5957031 0 2.5698242 1.2338867 2.5698242 3.1728515 0 1.9389649-.9648437 3.1635743-2.5698242 3.1635743zM94.0153809 31v-5.909668c0-1.4936523.8627929-2.4399414 2.2358398-2.4399414 1.4008789 0 2.050293.7792969 2.050293 2.3286133V31h2.3007812v-6.5683594c0-2.4213867-1.2338867-3.78515622-3.4975586-3.78515622-1.512207 0-2.5327148.69580078-3.0151367 1.82763672h-.1577148v-1.62353516h-2.2172852V31h2.3007813zm15.5488281-11.82861328c.7607422 0 1.3730469-.61230469 1.3730469-1.38232422 0-.77001953-.6123047-1.39160156-1.3730469-1.39160156-.7514649 0-1.3730469.62158203-1.3730469 1.39160156s.621582 1.38232422 1.3730469 1.38232422zM110.7145996 31V20.85058594h-2.2915039V31h2.2915039zm5.1489258 0v-5.909668c0-1.4936523.862793-2.4399414 2.2358398-2.4399414 1.4008789 0 2.050293.7792969 2.050293 2.3286133V31h2.3007813v-6.5683594c0-2.4213867-1.2338868-3.78515622-3.4975586-3.78515622-1.5122071 0-2.5327149.69580078-3.0151368 1.82763672h-.1577148v-1.62353516h-2.2172852V31h2.3007813zm18.7031246 0l1.966797-7.3105469h.157715L138.667236 31h2.421387l2.746094-10.14941406h-2.291504l-1.679199 7.57958986h-.157715l-1.966797-7.57958986h-2.198731l-1.948242 7.57958986h-.157715l-1.6884761-7.57958986h-2.3193359L132.173096 31h2.393554zm12.440918-11.82861328c.760743 0 1.373047-.61230469 1.373047-1.38232422 0-.77001953-.612304-1.39160156-1.373047-1.39160156-.751464 0-1.373047.62158203-1.373047 1.39160156s.621583 1.38232422 1.373047 1.38232422zM148.157959 31V20.85058594h-2.291504V31h2.291504zm6.837402.0463867c.445313 0 .872071-.0463867 1.206055-.1113281v-1.7998047c-.27832.027832-.45459.0463867-.779297.0463867-.964844 0-1.391601-.4453125-1.391601-1.4472656v-4.9819336h2.170898v-1.83691406h-2.170898v-2.55126953h-2.291504v2.55126953h-1.604981v1.83691406h1.604981v5.5385742c0 1.9667969.927734 2.7553711 3.256347 2.7553711zM160.895752 31v-5.8911133c0-1.4565429.844238-2.4399414 2.356445-2.4399414 1.335938 0 2.041016.7885742 2.041016 2.3286133V31h2.300781v-6.5498047c0-2.4121094-1.317383-3.78515624-3.488281-3.78515624-1.512207 0-2.597656.68652344-3.080078 1.82763674h-.166992v-5.56640627h-2.263672V31h2.300781zm20.224609.3339844c3.386231 0 5.501465-2.022461 5.501465-4.9448242v-8.77636723h-2.393555v8.55371093c0 1.809082-1.122558 3.0244141-3.10791 3.0244141-1.985351 0-3.10791-1.2153321-3.10791-3.0244141v-8.55371093h-2.393555v8.77636723c0 2.9223632 2.115235 4.9448242 5.501465 4.9448242zM191.037842 31l1.15039-3.4233398h4.92627L198.246338 31h2.569824l-4.759277-13.38720703h-2.69043L188.616455 31h2.421387zm5.520019-5.315918h-3.812988l1.836914-5.5200195h.157715l1.818359 5.5200195zM211.781982 31v-2.0688477h-6.271484v-3.7480468h5.928223v-1.9482422h-5.928223v-3.55322268h6.271484v-2.06884765h-8.665039V31h8.665039zm10.427735 0v-4.3881836h2.903808c2.708985 0 4.601563-1.8183594 4.601563-4.4716797 0-2.69970701-1.827637-4.52734373-4.499512-4.52734373h-5.399414V31h2.393555zm2.365722-6.3735352h-2.365722v-5.00976558h2.375c1.725586 0 2.699707.88134766 2.699707 2.52343748 0 1.5957031-1.001953 2.4863281-2.708985 2.4863281zM232.887939 31l1.150391-3.4233398h4.92627L240.096436 31h2.569824l-4.759278-13.38720703h-2.690429L230.466553 31h2.421386zm5.52002-5.315918h-3.812988l1.836914-5.5200195h.157715l1.818359 5.5200195zm11.169922 5.6499024c3.24707 0 5.260254-1.6235352 5.260254-4.2304688 0-2.0410156-1.141114-3.1728515-3.859375-3.7851562l-1.540039-.3525391c-1.660645-.3803711-2.337891-.9091797-2.337891-1.80908202 0-1.14111328 1.020508-1.88330078 2.560547-1.88330078 1.46582 0 2.504883.7421875 2.671875 1.92041016h2.291504c-.111328-2.30078125-2.143067-3.91503907-4.954102-3.91503907-2.996582 0-4.981933 1.61425782-4.981933 4.04492188 0 1.99462893 1.141113 3.20068363 3.571777 3.74804683l1.734863.3989258c1.716309.3989258 2.449219.9648438 2.449219 1.9296875 0 1.1225586-1.141113 1.9296875-2.718262 1.9296875-1.697754 0-2.885254-.7700195-3.033691-1.9667969h-2.337891c.120606 2.4306641 2.152344 3.9707032 5.223145 3.9707032zm12.561523 0c3.247071 0 5.260254-1.6235352 5.260254-4.2304688 0-2.0410156-1.141113-3.1728515-3.859375-3.7851562l-1.540039-.3525391c-1.660644-.3803711-2.33789-.9091797-2.33789-1.80908202 0-1.14111328 1.020507-1.88330078 2.560546-1.88330078 1.465821 0 2.504883.7421875 2.671875 1.92041016h2.291504c-.111328-2.30078125-2.143066-3.91503907-4.954101-3.91503907-2.996582 0-4.981934 1.61425782-4.981934 4.04492188 0 1.99462893 1.141113 3.20068363 3.571777 3.74804683l1.734864.3989258c1.716308.3989258 2.449219.9648438 2.449219 1.9296875 0 1.1225586-1.141114 1.9296875-2.718262 1.9296875-1.697754 0-2.885254-.7700195-3.033692-1.9667969h-2.33789c.120605 2.4306641 2.152344 3.9707032 5.223144 3.9707032z" fill="#000" fill-rule="nonzero"/><path d="M43.5694332 35.1112951l.0007015-.0009354c-.0023385-.0011693-.0044432-.0023385-.0067817-.0037417-.0067817-.0044432-.014265-.0081848-.0212806-.0121603-.6218152-.3428285-1.65427619-1.3514365-1.71998888-1.4014811-.00070156-.0009354-.00140312-.001637-.00210468-.0023385l-.00070156.0004677c-.04840757-.0364811-.10032294-.0689866-.15995545-.0919042-.34399778-.1323608-.73429844.0327394-.86993319.3685523-.07483296.1849777-.05448775.3828174.0348441.5458129l.00841871.0320379c.83134744 1.0953675 2.15097995 1.6400111 2.15097995 1.6400111.3224833.1239421.6879955-.0308686.8152116-.3454009.1092093-.2701002.0060802-.5708352-.2294098-.7289198" fill="#E82227"/><path d="M38.37829399 14.78205568c3.97199331-2.0960245 7.94632521-1.9288196 11.91831851.00070156.4415144.21444321.8942539.36317372 1.1552338-.19175947.2287083-.4861804-.1124833-.75136971-.5280401-.96160356-2.1070156-1.065902-4.3384409-1.63486637-6.7174276-1.6287862-2.29222715-.01870823-4.43104675.5404343-6.43165922 1.6213029-.42304009.22824054-.82175947.50371938-.50418709 1.03596882.28085747.47074611.6996882.33932072 1.1077617.12417595M37.09062918 32.2591537c-.36972161 0-.67069043.2934855-.67069043.6543207 0 .3606013.30096882.6540868.67069043.6540868.36995545 0 .67069042-.2934855.67069042-.6540868 0-.3608352-.30073497-.6543207-.67069042-.6543207M45.8201514 21.26144432c0-.36060134-.3007349-.65408686-.6706904-.65408686-.3697216 0-.6704565.29348552-.6704565.65408686 0 .36060134.3007349.65408686.6704565.65408686.3699555 0 .6706904-.29348552.6706904-.65408686M53.0267762 30.7668441c-.3699555 0-.6706905.2934855-.6706905.6540869 0 .3606013.300735.6540868.6706905.6540868.3697216 0 .6704565-.2934855.6704565-.6540868 0-.3606014-.3007349-.6540869-.6704565-.6540869M47.9808831 28.111794c-.3699555 0-.6704566.2934855-.6704566.6540868 0 .3606014.3005011.6540869.6704566.6540869.3697216 0 .6706904-.2934855.6706904-.6540869 0-.3606013-.3009688-.6540868-.6706904-.6540868" fill="#1D1D1A"/><path d="M47.9808831 28.111794c-.3699555 0-.6704566.2934855-.6704566.6540868 0 .3606014.3005011.6540869.6704566.6540869.3697216 0 .6706904-.2934855.6706904-.6540869 0-.3606013-.3009688-.6540868-.6706904-.6540868M56.0617205 23.8096002c-.3699555 0-.6706904.2934855-.6706904.6540869 0 .3608352.3007349.6540868.6706904.6540868.3697216 0 .6706904-.2932516.6706904-.6540868 0-.3606014-.3009688-.6540869-.6706904-.6540869M55.7379042 22.3209621c0-.3606013-.3007349-.65408682-.6706904-.65408682-.3697216 0-.6704566.29348552-.6704566.65408682 0 .3608352.300735.6540869.6704566.6540869.3699555 0 .6706904-.2932517.6706904-.6540869M35.73683073 16.65905345c.36972161 0 .67069043-.29325167.67069043-.65408686 0-.36060133-.30096882-.65408686-.67069043-.65408686-.3697216 0-.67069042.29348553-.67069042.65408686 0 .36083519.30096882.65408686.67069042.65408686M33.25466815 22.4080958c-.25045657 0-.4667706.1363363-.58182628.3351113l-.00233853-.0011692c-.00257238.0065478-.00514477.0128619-.00771715.0194098-.02361915.0437305-.04256125.0897995-.05542316.1386748-.57153675 1.4802895-.60731626 3.0167038-.60731626 3.0167038 0 .3608352.30073497.6540868.67045657.6540868.31687082 0 .58159243-.2160801.65128062-.5046547l.00116927-.0002339c0-.0014031 0-.0025724.00023385-.0037416.01075724-.0467707.01800668-.0951782.01800668-.1454566 0-.0226838-.00467706-.0444321-.00701559-.0666481.08933185-1.4692985.53669265-2.5302896.53669265-2.5302896v-.0002338c.0348441-.0790423.05448775-.1660356.05448775-.2574722 0-.3606013-.30096881-.6540868-.67069042-.6540868" fill="#1D1D1A"/><path d="M40.98208352 18.34763586c-5.51051225 2.14560133-6.93233853 7.27914254-5.43497773 12.29903114.00818486.0439644.02081292.0862918.03741648.1267484.09985524.2389977.34002227.4083073.62087973.4083073.04022272 0 .07927617-.0049109.11762807-.0114588.08114699-.0140312.15668151-.0434966.22496659-.0832517.19550111-.1143541.32786191-.3210801.32786191-.5593763 0-.0425613-.00491091-.0841871-.01286191-.1248775-.00233853-.0109911-.00608018-.0210468-.00888642-.0320379-.1323608-.4737862-.25934298-.9494432-.35592427-1.430245-1.07128062-5.3281069 2.51859688-9.89829621 7.78636973-9.89829621 4.8384187 0 8.0920156 2.947951 8.0920156 7.38297331 0 1.7646547-.720735 2.6439421-1.9994432 2.6177505-.0021047 0-.0039755-.0007015-.0060802-.0007015-.001637 0-.003274.0004677-.0051448.0004677-.0247884-.0004677-.0498107.0009354-.0743652-.0004677-.0030401.0028062-.004911.0058463-.007951.0086525-.3280958.0423274-.5829956.3142985-.5829956.6454343 0 .3012027.2102339.552127.4943653.6281292.0084187.0035078.0175389.0067817.033441.0109911.0007015 0 .00304.0002338.0039755.0007015.0053786.0009355.0112249.0014032.0166035.0023386.0140312.0018708.0308686.0035078.0516815.0051447.0233853.0021047.0463029.0067818.0703898.0067818.0086525 0 .0166035-.0021047.0252561-.0023386.1354009.0039755.2967595.0023386.2967595.0023386 2.1-.162294 2.8546436-1.8689533 2.8546436-4.3342316 0-6.14612477-6.7115813-9.9478731-12.56562358-7.66850784" fill="#1D1D1A"/><path d="M41.2944111 16.59377357c.02791667-.00458333.05291667-.015.08-.02166667-.02791667.00708334-.055.01458334-.08291667.02208334.00083334-.00041667.00166667-.00041667.00291667-.00041667" fill="#00AEEF"/><path d="M41.8246559 15.82903898c-.00210468-.01075724-.00584632-.02081292-.00841871-.03133631-.07155902-.28038975-.32949888-.48945434-.63865256-.48945434-.04045657 0-.07974387.00491091-.11809577.01169265-.05051225.01426503-.09915367.02969933-.14873051.04443207-1.07642539.32108018-1.96857461.75885301-2.88387528 1.29461025-1.26140311.73850779-2.26556793 1.57195991-3.3251559 2.90188196-.15130289.18988864-.42140312.4394098-.59983296.70740534-.08979956.09821826-.14826281.22262806-.16416481.36013363-.03694878.1791314.00537862.35826281.18170378.52640312.00631404.00654788.01332963.01239421.01987751.01870824.02361915.02128062.04910913.04232739.07740535.06337417.00304008.00233853.00608017.0039755.00912026.00631403 0 0 .00023386 0 .00023386.00023385.71301781.51424276 1.16575723-.45765033 1.48356347-.85870824 1.67134744-2.10818486 3.2863363-3.20706013 5.58183742-3.80034521.01566815-.0039755.03086859-.00841871.0467706-.01239421.06243875-.01566815.12230512-.03811804.17655902-.0696882.19246102-.11248329.32271715-.31570156.32271715-.55025612 0-.04209354-.00491092-.08301782-.01286192-.12300668M54.1987773 19.80510134c-.031804-.05706014-.0699221-.11014477-.1171604-.1552784-2.4409577-3.11375278-5.7025055-4.62-9.6111247-4.69951002-.1732851.00233853-.6112918 0-.6622717 0-.3697216 0-.6706904.29348552-.6706904.65408686 0 .36083519.3009688.65408686.6706904.65408686 3.4397439-.1786637 6.9047439 1.21089087 9.2472494 4.21239421l.0004677.0004677c.0074833.0114588.0168375.02151448.0250223.03227172.1220713.15878619.3145323.26308463.5331849.26308463.3687862 0 .6683519-.29255011.6683519-.65198218 0-.1124833-.0320379-.21724945-.0837194-.30962138" fill="#1D1D1A"/><g fill="#1D1D1A"><path d="M50.79032335 26.42686009c-.01028953-.2060245-.03928731-.41228285-.07717149-.61550112-.31593542-1.69309577-1.29344098-3.22459911-2.6016147-4.17380846.11178173.08979955.1945657.21327394.23057906.35475501.00257238.01122495.00678174.02151448.00912027.03273942.007951.04115813.01286191.08371938.01286191.12721604 0 .24273942-.13469933.45320712-.33370824.56943207-.0696882.04069042-.14662583.07062361-.2294098.08488864-.0388196.00678174-.0785746.01169265-.11949888.01169265-.13610245 0-.26191537-.03975501-.36831849-.10687082 1.07315145.88630289 1.98003341 2.35489977 2.14022272 3.83402004.05144766.47448775.10032294.95926503.70389755.93985524.68518931-.02174833.65712695-.57247217.63304009-1.05841871"/><path d="M47.80105052 22.80660508c.08278396-.01449889.15948775-.04419822.22917595-.08488865.19924276-.11622494.33394209-.32669265.33394209-.56943207 0-.04349666-.00491091-.0860579-.01309577-.12744989-.00233853-.01099109-.00631403-.02128062-.00888641-.03250556-.03624722-.14148107-.11879733-.26495546-.23081292-.35475502-.00865256-.00631403-.01730512-.01286191-.02595768-.01894209-.112951-.08255011-.25209355-.1323608-.404098-.1323608-.37650334 0-.68285078.29863029-.68285078.66601336 0 .04162584.00491091.08184855.01262806.12113586.00841871.04466592.02104677.08769488.03811804.128853.03367484.08044544.08395323.15223831.14498887.2135078.03998886.0308686.07951002.06290646.11879732.09564588.10640312.06711581.2324499.10687083.36831849.10687083.04115813 0 .08067929-.00491092.11973274-.01169265"/></g><path d="M48.0854855 21.61849109c.0154167.01125.0308334.0225.04625.03375-.015-.01208333-.0308333-.0225-.04625-.03375M47.4060085 22.7862441c-.0704166-.0583334-.1408333-.1154167-.2116666-.1704167.0641666.0641667.1341666.1216667.2116666.1704167" fill="#00AEEF"/><path d="M45.0032474 23.4664549c-.0020833-.0004167-.0033333-.0008333-.0054167-.00125.0020834.0008333.0041667.00125.00625.0020833l-.0008333-.0008333zM47.7027383 34.1782684c-.3701893-.13049-.7553452-.2326838-1.1065924-.4012918-2.8331292-1.3605568-4.3573831-3.5866035-4.5035412-6.662706-.065245-1.3752895.8465479-2.3404009 2.1210467-2.38951l.0184744-.0063141c.0774054-.0123942.1503675-.0378841.2167818-.0736636.2050891-.1101448.3458686-.3203787.3458686-.5642874 0-.2422717-.1389087-.4513363-.3416593-.5621826-.0895657-.0486414-.1903563-.0785746-.2988641-.0823162-.0077172-.0002339-.0149666-.0023386-.0226838-.0023386-.0149666 0-.0292316.0035078-.0439643.0044432-1.7057239.1071047-3.07937641 1.3292205-3.3034076 2.9888753-.50418708 3.7383742 2.7452005 8.2164254 6.5034521 8.9666258.4281849.0855903.8154455.0626727.9471047-.418363.1157572-.4223385-.1470935-.6613363-.5320156-.796971M47.7224989 26.223735c-.006314-.0512138-.0194098-.0998553-.0369488-.1468597-.1241759-.4777617-.3168708-1.0371381-.5932851-1.4162138-.020579-.0325056-.0441982-.0629065-.0701559-.0914366-.0044432-.0053786-.0084187-.0116926-.0128619-.0168374-.0009354-.0011692-.0025724-.0016369-.0037416-.0028062-.1220713-.1244098-.2930178-.2027506-.4831403-.2027506-.3699555 0-.6706905.2934856-.6706905.6540869 0 .0687528.0137974.1335301.0341426.195735l-.0025724.0025723s.0039755.0084188.0107572.0236192c.0084187.0226837.0182406.0444321.0289978.0657127.0696882.1613586.2235635.5411359.4045657 1.1283408.0098218.060334.0268931.1180957.0519154.1718819.1108463.2394655.356392.4069042.642628.4069042.1232406 0 .237127-.0334409.3379176-.0876948.2184187-.1171604.3683185-.3411916.3683185-.6012361 0-.0280624-.0023385-.055657-.0058463-.0830178" fill="#1D1D1A"/><path d="M40.51734744 31.8872339c.02416667.0404166.04666667.08125.07083333.1216666-.02125-.0420833-.04458333-.0825-.07083333-.1216666M39.34134744 32.5085345c.03125.06875.06916667.13375.11333333.1945834-.025-.0429167-.04958333-.08625-.07208333-.1258334-.00333333-.0058333-.01958333-.0325-.04125-.06875" fill="#E82227"/><path d="M42.7137183 20.78859354c-.1073386 0-.3005012.07085746-.3021381.07085746-2.76601338.81006682-4.63309579 3.302706-4.60433187 6.3257238.05589087 1.8909354.88653675 4.1904121 1.43679287 5.1520156.02548998.0512138.06992205.1260468.09728285.1714143.01216036.0203452.02128063.0350779.0233853.0383519.01239421.0224499.02619154.0465367.04022272.0708574.12160356.168608.32224944.2799221.54932071.2799221.11716036 0 .22590201-.0320379.32201559-.0837194.20812918-.1115479.35077951-.3248218.35077951-.572706 0-.1031292-.02595768-.1992428-.06992204-.2860022-.01356348-.0226838-.02619154-.0456014-.03975502-.0682851-.93471046-1.5588642-1.40896436-3.2793207-1.34863029-5.1852227.07015591-2.2185635 1.65100223-4.0140869 3.67336307-4.6176615.0402227-.0074833.0788084-.0194098.1162249-.0339087.0598664-.0163697.237127-.12791758.2541982-.17468818.1057016-.11552339.1716481-.26612473.1716481-.43286192 0-.36060134-.3007349-.65408686-.6704565-.65408686" fill="#00AC75"/><path d="M50.8805434 31.8173586c-.0912026-.0498107-.1936303-.0802116-.3042427-.0837194h-.0002339c-.0378842.0037416-.0755345.0060802-.1131848.0093541-2.8738196.2439087-5.2086081-1.6383741-5.4576615-4.4406347-.043029-.4861804-.0273608-1.0542094-.7109132-1.0046325-.6302338.046069-.6356124.6646102-.6031069 1.1542984.2097662 3.1647327 2.93696 5.611069 6.2431738 5.6456793.2149109 0 .432628-.0208129.6503452-.0507461.0427951-.0058463.0855902-.0116927.1286191-.0184744.057294-.0144989.1120156-.0357795.1629956-.0633742.2090646-.1120156.3524165-.3264588.3524165-.5752784 0-.2467149-.1414811-.459755-.3482072-.5724721" fill="#1D1D1A"/></g></svg>